<svg width="32" height="32" viewBox="0 0 32 32" fill="none" xmlns="http://www.w3.org/2000/svg">
<path d="M20.4159 14.704C20.1931 14.7031 19.9725 14.7487 19.7684 14.838C19.5642 14.9272 19.381 15.0581 19.2304 15.2223C19.0798 15.3865 18.9651 15.5803 18.8937 15.7914C18.8223 16.0024 18.7958 16.2261 18.8159 16.448H22.1119C22.1332 16.2177 22.1043 15.9856 22.0273 15.7676C21.9502 15.5497 21.8269 15.3509 21.6657 15.1852C21.5045 15.0194 21.3093 14.8906 21.0936 14.8075C20.8778 14.7244 20.6466 14.6891 20.4159 14.704Z" fill="white" fill-opacity="0.5"/>
<path d="M11.984 16.48H10.016V19.584H11.616C13.216 19.584 13.92 19.056 13.92 17.984C13.92 16.912 13.184 16.48 11.984 16.48Z" fill="white" fill-opacity="0.5"/>
<path d="M13.376 13.632C13.376 12.784 12.816 12.272 11.856 12.272H10.016V15.056H11.376C12.8 15.056 13.376 14.544 13.376 13.632Z" fill="white" fill-opacity="0.5"/>
<path d="M16 0C12.8355 0 9.74207 0.938383 7.11088 2.69649C4.4797 4.45459 2.42894 6.95344 1.21793 9.87706C0.00693254 12.8007 -0.309921 16.0177 0.307443 19.1214C0.924806 22.2251 2.44866 25.0761 4.6863 27.3137C6.92394 29.5513 9.77486 31.0752 12.8786 31.6926C15.9823 32.3099 19.1993 31.9931 22.1229 30.7821C25.0466 29.5711 27.5454 27.5203 29.3035 24.8891C31.0616 22.2579 32 19.1645 32 16C32 13.8988 31.5861 11.8183 30.7821 9.87706C29.978 7.93585 28.7994 6.17203 27.3137 4.68629C25.828 3.20055 24.0641 2.022 22.1229 1.21793C20.1817 0.413852 18.1012 0 16 0ZM12.32 21.12H8V10.72H12.32C14.192 10.72 15.424 11.696 15.424 13.28C15.4461 13.8121 15.2778 14.3347 14.9494 14.7541C14.621 15.1734 14.1539 15.4619 13.632 15.568C13.9628 15.5757 14.2885 15.6507 14.5893 15.7886C14.89 15.9265 15.1595 16.1244 15.3811 16.37C15.6028 16.6156 15.772 16.9039 15.8784 17.2172C15.9848 17.5305 16.0262 17.8622 16 18.192C16 20.048 14.4 21.12 12.32 21.12ZM18 11.52H22.8V12.32H18V11.52ZM24 17.68H18.72V17.904C18.6925 18.1471 18.7174 18.3933 18.7931 18.626C18.8688 18.8587 18.9934 19.0725 19.1587 19.2529C19.324 19.4333 19.526 19.5762 19.7512 19.672C19.9763 19.7677 20.2194 19.8141 20.464 19.808C20.8074 19.8614 21.1586 19.7887 21.4527 19.6034C21.7467 19.4182 21.9639 19.1328 22.064 18.8H24C23.8276 19.568 23.3782 20.2456 22.7376 20.7031C22.0971 21.1606 21.3104 21.366 20.528 21.28C20.0279 21.3305 19.5229 21.2708 19.0483 21.1051C18.5738 20.9394 18.1414 20.6718 17.7814 20.321C17.4215 19.9702 17.1428 19.5448 16.9649 19.0747C16.7871 18.6046 16.7144 18.1012 16.752 17.6V16.896C16.718 16.4103 16.7895 15.9231 16.9615 15.4677C17.1335 15.0122 17.4019 14.5994 17.7484 14.2574C18.095 13.9154 18.5113 13.6525 18.969 13.4865C19.4267 13.3206 19.9148 13.2556 20.4 13.296C20.8836 13.265 21.3681 13.338 21.8211 13.51C22.2741 13.682 22.685 13.949 23.0261 14.2932C23.3672 14.6373 23.6306 15.0505 23.7986 15.505C23.9666 15.9595 24.0353 16.4447 24 16.928V17.68Z" fill="white" fill-opacity="0.5"/>
</svg>
