<svg width="30" height="24" viewBox="0 0 30 24" fill="none" xmlns="http://www.w3.org/2000/svg">
<path d="M23.9925 11.6117L23.9925 14.2817C23.9925 17.5917 21.6425 18.9517 18.7725 17.2917L16.4625 15.9517L14.1525 14.6117C11.2825 12.9517 11.2825 10.2417 14.1525 8.5817L16.4625 7.2417L18.7725 5.9017C21.6425 4.2717 23.9925 5.6217 23.9925 8.9417L23.9925 11.6117Z" fill="#4C4C4C"/>
<path d="M11.9925 11.6116L11.9925 14.2816C11.9925 17.5916 9.64249 18.9516 6.77249 17.2916L4.46249 15.9517L2.15249 14.6117C-0.717508 12.9517 -0.717508 10.2417 2.15249 8.58165L4.46249 7.24165L6.77249 5.90165C9.64249 4.27165 11.9925 5.62165 11.9925 8.94165L11.9925 11.6116Z" fill="#D9D9D9"/>
</svg>
