<svg width="23" height="21" viewBox="0 0 23 21" fill="none" xmlns="http://www.w3.org/2000/svg">
<path d="M16.5 16.8737H12.5L8.05 19.8337C7.89982 19.9338 7.72528 19.9913 7.545 20C7.36472 20.0087 7.18546 19.9683 7.02635 19.8831C6.86724 19.7979 6.73424 19.6711 6.64154 19.5162C6.54884 19.3613 6.49992 19.1842 6.5 19.0037V16.8737C3.5 16.8737 1.5 14.8737 1.5 11.8737V5.87372C1.5 2.87372 3.5 0.873718 6.5 0.873718H16.5C19.5 0.873718 21.5 2.87372 21.5 5.87372V11.8737C21.5 14.8737 19.5 16.8737 16.5 16.8737Z" stroke="#BFBFBF" stroke-width="1.5" stroke-miterlimit="10" stroke-linecap="round" stroke-linejoin="round"/>
<path d="M15 9.40073H13.1259C12.6294 9.40073 12.2937 9.06574 12.2937 8.66251V7.7382C12.2937 7.33497 12.6294 6.99998 13.1259 6.99998H14.1678C14.6224 6.99998 15 7.33497 15 7.7382V9.40073ZM15 9.40073C15 11.1315 14.6364 11.4231 13.5385 12L15 9.40073ZM10.7063 9.40073H8.83217C8.33566 9.40073 8 9.06574 8 8.66251V7.7382C8 7.33497 8.33566 6.99998 8.83217 6.99998H9.87413C10.3287 6.99998 10.7063 7.33497 10.7063 7.7382V9.40073ZM10.7063 9.40073C10.7063 11.1315 10.3427 11.4231 9.24476 12L10.7063 9.40073Z" fill="#BFBFBF"/>
<path d="M15 9.40073H13.1259C12.6294 9.40073 12.2937 9.06574 12.2937 8.66251V7.7382C12.2937 7.33497 12.6294 6.99998 13.1259 6.99998H14.1678C14.6224 6.99998 15 7.33497 15 7.7382V9.40073ZM15 9.40073C15 11.1315 14.6364 11.4231 13.5385 12M10.7063 9.40073H8.83217C8.33566 9.40073 8 9.06574 8 8.66251V7.7382C8 7.33497 8.33566 6.99998 8.83217 6.99998H9.87413C10.3287 6.99998 10.7063 7.33497 10.7063 7.7382V9.40073ZM10.7063 9.40073C10.7063 11.1315 10.3427 11.4231 9.24476 12" stroke="#BFBFBF" stroke-linecap="round" stroke-linejoin="round"/>
</svg>
