<svg width="22" height="20" viewBox="0 0 22 20" fill="none" xmlns="http://www.w3.org/2000/svg">
<path d="M11.62 18.71C11.28 18.83 10.72 18.83 10.38 18.71C7.48 17.72 1 13.59 1 6.59C1 3.5 3.49 1 6.56 1C8.38 1 9.99 1.88 11 3.24C11.5138 2.54588 12.183 1.98173 12.954 1.59274C13.725 1.20376 14.5764 1.00076 15.44 1C18.51 1 21 3.5 21 6.59C21 13.59 14.52 17.72 11.62 18.71Z" stroke="white" stroke-width="1.5" stroke-linecap="round" stroke-linejoin="round"/>
<path d="M14.5 3.9C14.5 3.9 16.3254 3.37021 17.5 4.4C18.6837 5.4378 18.5 6.89999 18.5 6.89999" stroke="white" stroke-linecap="round"/>
</svg>
