<svg width="24" height="24" viewBox="0 0 24 24" fill="none" xmlns="http://www.w3.org/2000/svg">
<path d="M12.0032 17.8163V14.8163V17.8163ZM10.0732 2.63626L3.14319 8.18626C2.36319 8.80626 1.86319 10.1163 2.03319 11.0963L3.36319 19.0563C3.60319 20.4763 4.96319 21.6263 6.40319 21.6263H17.6032C19.0332 21.6263 20.4032 20.4663 20.6432 19.0563L21.9732 11.0963C22.1332 10.1163 21.6332 8.80626 20.8632 8.18626L13.9332 2.64626C12.8632 1.78626 11.1332 1.78626 10.0732 2.63626Z" fill="white"/>
<path d="M12.0032 17.8163V14.8163M10.0732 2.63626L3.14319 8.18626C2.36319 8.80626 1.86319 10.1163 2.03319 11.0963L3.36319 19.0563C3.60319 20.4763 4.96319 21.6263 6.40319 21.6263H17.6032C19.0332 21.6263 20.4032 20.4663 20.6432 19.0563L21.9732 11.0963C22.1332 10.1163 21.6332 8.80626 20.8632 8.18626L13.9332 2.64626C12.8632 1.78626 11.1332 1.78626 10.0732 2.63626Z" stroke="#2A2A2A" stroke-width="1.5" stroke-linecap="round" stroke-linejoin="round"/>
</svg>
