<svg width="24" height="24" viewBox="0 0 24 24" fill="none" xmlns="http://www.w3.org/2000/svg">
<path d="M7.00003 13H6.00003C4.89546 13 4.00003 13.8954 4.00003 15V18C4.00003 19.1046 4.89546 20 6.00003 20H7.00003C8.1046 20 9.00003 19.1046 9.00003 18V15C9.00003 13.8954 8.1046 13 7.00003 13Z" fill="white" stroke="white" stroke-width="2.2" stroke-linecap="round" stroke-linejoin="round"/>
<path d="M18 13H17C15.8954 13 15 13.8954 15 15V18C15 19.1046 15.8954 20 17 20H18C19.1046 20 20 19.1046 20 18V15C20 13.8954 19.1046 13 18 13Z" fill="white" stroke="white" stroke-width="2.2" stroke-linecap="round" stroke-linejoin="round"/>
<path d="M3.17459 15.0072V12.0163C3.17459 9.90094 4.10197 7.87225 5.75273 6.37648C7.40348 4.88072 9.64238 4.04041 11.9769 4.04041C14.3114 4.04041 16.5503 4.88072 18.2011 6.37648C19.8518 7.87225 20.7792 9.90094 20.7792 12.0163V15.0072" stroke="white" stroke-width="0.6" stroke-linecap="round" stroke-linejoin="round"/>
</svg>
