<svg width="24" height="24" viewBox="0 0 24 24" fill="none" xmlns="http://www.w3.org/2000/svg">
<path d="M12 22C17.5 22 22 17.5 22 12C22 6.5 17.5 2 12 2C6.5 2 2 6.5 2 12C2 17.5 6.5 22 12 22Z" fill="#7A7A7A"/>
<path d="M14.3046 8.06631L10.3591 9.0557C9.78301 9.19874 9.19894 9.78283 9.0559 10.359L8.06654 14.3046C7.76855 15.4966 8.49963 16.2317 9.6956 15.9337L13.6411 14.9483C14.2132 14.8052 14.8013 14.2172 14.9443 13.645L15.9337 9.69542C16.2317 8.50339 15.4966 7.76831 14.3046 8.06631Z" fill="white"/>
</svg>
