<svg width="24" height="24" viewBox="0 0 24 24" fill="none" xmlns="http://www.w3.org/2000/svg">
<path d="M22 15V9C22 4 20 2 15 2H9C4 2 2 4 2 9V15C2 20 4 22 9 22H15C20 22 22 20 22 15Z" fill="#7A7A7A"/>
<path d="M8.42001 17.11C8.62618 17.11 8.83034 17.0694 9.02082 16.9905C9.2113 16.9116 9.38438 16.7959 9.53016 16.6501C9.67595 16.5043 9.7916 16.3313 9.8705 16.1408C9.9494 15.9503 9.99001 15.7461 9.99001 15.54C9.99001 15.3338 9.9494 15.1296 9.8705 14.9392C9.7916 14.7487 9.67595 14.5756 9.53016 14.4298C9.38438 14.284 9.2113 14.1684 9.02082 14.0895C8.83034 14.0106 8.62618 13.97 8.42001 13.97C8.00362 13.97 7.60428 14.1354 7.30985 14.4298C7.01542 14.7242 6.85001 15.1236 6.85001 15.54C6.85001 15.9564 7.01542 16.3557 7.30985 16.6501C7.60428 16.9446 8.00362 17.11 8.42001 17.11V17.11Z" stroke="white" stroke-width="1.5" stroke-linecap="round" stroke-linejoin="round"/>
<path d="M15.75 14.49V8.35001C15.75 7.04001 14.93 6.86001 14.1 7.09001L10.96 7.95001C10.39 8.11001 10 8.56001 10 9.21001V15.55" stroke="white" stroke-width="1.5" stroke-linecap="round" stroke-linejoin="round"/>
<path d="M9.99001 11.04L15.75 9.46997M14.18 16.06C14.5964 16.06 14.9957 15.8946 15.2902 15.6001C15.5846 15.3057 15.75 14.9064 15.75 14.49C15.75 14.0736 15.5846 13.6742 15.2902 13.3798C14.9957 13.0854 14.5964 12.92 14.18 12.92C13.7636 12.92 13.3643 13.0854 13.0698 13.3798C12.7754 13.6742 12.61 14.0736 12.61 14.49C12.61 14.9064 12.7754 15.3057 13.0698 15.6001C13.3643 15.8946 13.7636 16.06 14.18 16.06V16.06Z" stroke="white" stroke-width="1.5" stroke-linecap="round" stroke-linejoin="round"/>
</svg>
