<svg width="24" height="24" viewBox="0 0 24 24" fill="none" xmlns="http://www.w3.org/2000/svg">
<path d="M21 8.65V14.35C21 14.69 20.99 15.02 20.97 15.33C20.5981 14.9098 20.1407 14.5738 19.6286 14.3444C19.1164 14.115 18.5612 13.9976 18 14C15.79 14 14 15.79 14 18C14 18.75 14.21 19.46 14.58 20.06C14.78 20.4 15.04 20.71 15.34 20.97C15.03 20.99 14.7 21 14.35 21H8.65C3.9 21 2 19.1 2 14.35V8.65C2 3.9 3.9 2 8.65 2H14.35C19.1 2 21 3.9 21 8.65Z" fill="#7A7A7A"/>
<path d="M6.72 14.42C7.10457 14.42 7.47338 14.2672 7.74531 13.9953C8.01724 13.7234 8.17 13.3546 8.17 12.97C8.17 12.5854 8.01724 12.2166 7.74531 11.9447C7.47338 11.6728 7.10457 11.52 6.72 11.52C6.33544 11.52 5.96663 11.6728 5.6947 11.9447C5.42277 12.2166 5.27 12.5854 5.27 12.97C5.27 13.3546 5.42277 13.7234 5.6947 13.9953C5.96663 14.2672 6.33544 14.42 6.72 14.42V14.42Z" stroke="white" stroke-width="1.5" stroke-linecap="round" stroke-linejoin="round"/>
<path d="M13.48 12V6.34001C13.48 5.13001 12.72 4.97001 11.96 5.18001L9.06999 5.97001C8.54999 6.11001 8.17999 6.53001 8.17999 7.13001V12.97" stroke="white" stroke-width="1.5" stroke-linecap="round" stroke-linejoin="round"/>
<path d="M8.17 8.83L13.48 7.38M12.03 13.45C12.4146 13.45 12.7834 13.2972 13.0553 13.0253C13.3272 12.7534 13.48 12.3846 13.48 12C13.48 11.6154 13.3272 11.2466 13.0553 10.9747C12.7834 10.7028 12.4146 10.55 12.03 10.55C11.6454 10.55 11.2766 10.7028 11.0047 10.9747C10.7328 11.2466 10.58 11.6154 10.58 12C10.58 12.3846 10.7328 12.7534 11.0047 13.0253C11.2766 13.2972 11.6454 13.45 12.03 13.45V13.45Z" stroke="white" stroke-width="1.5" stroke-linecap="round" stroke-linejoin="round"/>
<path d="M19.49 17.98H16.51M18 16.52V19.51M22 18C22 18.75 21.79 19.46 21.42 20.06C21.0675 20.6525 20.5667 21.143 19.967 21.4831C19.3674 21.8233 18.6894 22.0014 18 22C17.3106 22.0014 16.6326 21.8233 16.033 21.4831C15.4333 21.143 14.9325 20.6525 14.58 20.06C14.1993 19.4404 13.9985 18.7272 14 18C14 15.79 15.79 14 18 14C20.21 14 22 15.79 22 18Z" stroke="white" stroke-width="1.5" stroke-miterlimit="10" stroke-linecap="round" stroke-linejoin="round"/>
</svg>
