<svg width="24" height="24" viewBox="0 0 24 24" fill="none" xmlns="http://www.w3.org/2000/svg">
<path d="M17 22H7C4 22 2 20.5 2 17V12C2 8.5 4 7 7 7H17C20 7 22 8.5 22 12V17C22 20.5 20 22 17 22ZM6 4.5H18H6ZM9 2H15H9Z" fill="#7A7A7A"/>
<path d="M6 4.5H18M9 2H15M17 22H7C4 22 2 20.5 2 17V12C2 8.5 4 7 7 7H17C20 7 22 8.5 22 12V17C22 20.5 20 22 17 22Z" stroke="#7A7A7A" stroke-width="1.5" stroke-miterlimit="10" stroke-linecap="round" stroke-linejoin="round"/>
<path d="M8.89 19.11C9.25335 19.11 9.60182 18.9657 9.85874 18.7087C10.1157 18.4518 10.26 18.1033 10.26 17.74C10.26 17.3766 10.1157 17.0282 9.85874 16.7713C9.60182 16.5143 9.25335 16.37 8.89 16.37C8.52666 16.37 8.17819 16.5143 7.92127 16.7713C7.66434 17.0282 7.52 17.3766 7.52 17.74C7.52 18.1033 7.66434 18.4518 7.92127 18.7087C8.17819 18.9657 8.52666 19.11 8.89 19.11Z" stroke="white" stroke-width="1.5" stroke-linecap="round" stroke-linejoin="round"/>
<path d="M15.28 16.83V11.48C15.28 10.34 14.57 10.18 13.84 10.38L11.1 11.13C10.6 11.27 10.26 11.66 10.26 12.23V17.74" stroke="white" stroke-width="1.5" stroke-linecap="round" stroke-linejoin="round"/>
<path d="M10.26 13.83L15.28 12.46M13.91 18.2C14.2733 18.2 14.6218 18.0557 14.8787 17.7987C15.1357 17.5418 15.28 17.1933 15.28 16.83C15.28 16.4666 15.1357 16.1182 14.8787 15.8613C14.6218 15.6043 14.2733 15.46 13.91 15.46C13.5466 15.46 13.1982 15.6043 12.9413 15.8613C12.6843 16.1182 12.54 16.4666 12.54 16.83C12.54 17.1933 12.6843 17.5418 12.9413 17.7987C13.1982 18.0557 13.5466 18.2 13.91 18.2V18.2Z" stroke="white" stroke-width="1.5" stroke-linecap="round" stroke-linejoin="round"/>
</svg>
