<svg width="51" height="51" viewBox="0 0 51 51" fill="none" xmlns="http://www.w3.org/2000/svg">
<rect width="50.0425" height="50.13" rx="10" fill="#212121"/>
<path d="M26.8713 15.76C25.662 15.4156 24.3806 15.4156 23.1713 15.76C23.4613 15.02 24.1813 14.5 25.0213 14.5C25.8613 14.5 26.5813 15.02 26.8713 15.76V15.76Z" stroke="white" stroke-width="1.5" stroke-miterlimit="10" stroke-linecap="round" stroke-linejoin="round"/>
<path d="M25.046 15.76C21.736 15.76 19.046 18.45 19.046 21.76V24.65C19.046 25.26 18.786 26.19 18.476 26.71L17.326 28.62C16.616 29.8 17.106 31.11 18.406 31.55C22.716 32.99 27.366 32.99 31.676 31.55C32.886 31.15 33.416 29.72 32.756 28.62L31.606 26.71C31.306 26.19 31.046 25.26 31.046 24.65V21.76C31.046 18.46 28.346 15.76 25.046 15.76Z" fill="white" stroke="white" stroke-width="1.5" stroke-miterlimit="10" stroke-linecap="round"/>
<path d="M28.0212 32.63C28.0212 34.28 26.6712 35.63 25.0212 35.63C24.2012 35.63 23.4412 35.29 22.9012 34.75C22.3394 34.1873 22.023 33.4252 22.0212 32.63" stroke="white" stroke-width="1.5" stroke-miterlimit="10"/>
</svg>
