<svg width="24" height="24" viewBox="0 0 24 24" fill="none" xmlns="http://www.w3.org/2000/svg">
<path d="M17 5H7C4 5 2 7 2 10V17C2 20 4 22 7 22H17C20 22 22 20 22 17V10C22 7 20 5 17 5ZM7 2V5V2Z" fill="#7A7A7A"/>
<path d="M7 5H17C20 5 22 7 22 10V17C22 20 20 22 17 22H7C4 22 2 20 2 17V10C2 7 4 5 7 5ZM7 5V2" stroke="#7A7A7A" stroke-linecap="round" stroke-linejoin="round"/>
<path d="M8.5 16C9.16304 16 9.79893 15.7366 10.2678 15.2678C10.7366 14.7989 11 14.163 11 13.5C11 12.837 10.7366 12.2011 10.2678 11.7322C9.79893 11.2634 9.16304 11 8.5 11C7.83696 11 7.20107 11.2634 6.73223 11.7322C6.26339 12.2011 6 12.837 6 13.5C6 14.163 6.26339 14.7989 6.73223 15.2678C7.20107 15.7366 7.83696 16 8.5 16ZM14.5 11H18.5H14.5ZM14.5 15H15H14.5ZM18 15H18.5H18Z" fill="white"/>
<path d="M14.5 11H18.5M14.5 15H15M18 15H18.5M8.5 16C9.16304 16 9.79893 15.7366 10.2678 15.2678C10.7366 14.7989 11 14.163 11 13.5C11 12.837 10.7366 12.2011 10.2678 11.7322C9.79893 11.2634 9.16304 11 8.5 11C7.83696 11 7.20107 11.2634 6.73223 11.7322C6.26339 12.2011 6 12.837 6 13.5C6 14.163 6.26339 14.7989 6.73223 15.2678C7.20107 15.7366 7.83696 16 8.5 16V16Z" stroke="white" stroke-width="1.5" stroke-linecap="round" stroke-linejoin="round"/>
</svg>
