<svg width="19" height="19" viewBox="0 0 19 19" fill="none" xmlns="http://www.w3.org/2000/svg">
<path d="M17.6667 17.8334L16 16.1667M8.91667 17.0001C9.9563 17.0001 10.9857 16.7953 11.9462 16.3975C12.9067 15.9996 13.7795 15.4165 14.5146 14.6813C15.2497 13.9462 15.8329 13.0735 16.2307 12.113C16.6286 11.1525 16.8333 10.123 16.8333 9.08342C16.8333 8.04378 16.6286 7.01433 16.2307 6.05384C15.8329 5.09334 15.2497 4.22062 14.5146 3.48549C13.7795 2.75036 12.9067 2.16722 11.9462 1.76937C10.9857 1.37152 9.9563 1.16675 8.91667 1.16675C6.81704 1.16675 4.8034 2.00082 3.31874 3.48549C1.83407 4.97015 1 6.98378 1 9.08342C1 11.183 1.83407 13.1967 3.31874 14.6813C4.8034 16.166 6.81704 17.0001 8.91667 17.0001Z" stroke="white" stroke-width="1.5" stroke-linecap="round" stroke-linejoin="round"/>
</svg>
