<svg width="24" height="24" viewBox="0 0 24 24" fill="none" xmlns="http://www.w3.org/2000/svg">
<path d="M3 17.98L5.55 17.99C6.46 17.99 7.31 17.54 7.81 16.79L14.2 7.21C14.4474 6.83805 14.7836 6.53357 15.1782 6.32407C15.5727 6.11457 16.0133 6.00663 16.46 6.01L21.01 6.03M19 19.98L21 17.98M8.89 8.62L7.81 7.12C7.56022 6.77034 7.22987 6.48599 6.84693 6.29104C6.46398 6.09608 6.0397 5.99625 5.61 6L3 6.01M12.97 15.38L14.19 16.95C14.7 17.61 15.5 18 16.34 18L21.01 17.98M21 6.02L19 4.02" stroke="white" stroke-width="1.5" stroke-linecap="round" stroke-linejoin="round"/>
</svg>
