<svg width="15" height="15" viewBox="0 0 15 15" fill="none" xmlns="http://www.w3.org/2000/svg">
<path d="M8.58119 2.19377L9.68119 4.39377C9.83119 4.70002 10.2312 4.99377 10.5687 5.05002L12.5624 5.38127C13.8374 5.59377 14.1374 6.51877 13.2187 7.43127L11.6687 8.98127C11.4062 9.24377 11.2624 9.75002 11.3437 10.1125L11.7874 12.0313C12.1374 13.55 11.3312 14.1375 9.98744 13.3438L8.11869 12.2375C7.78119 12.0375 7.22494 12.0375 6.88119 12.2375L5.01244 13.3438C3.67494 14.1375 2.86244 13.5438 3.21244 12.0313L3.65619 10.1125C3.73744 9.75002 3.59369 9.24377 3.33119 8.98127L1.78119 7.43127C0.868693 6.51877 1.16244 5.59377 2.43744 5.38127L4.43119 5.05002C4.76244 4.99377 5.16244 4.70002 5.31244 4.39377L6.41244 2.19377C7.01244 1.00002 7.98744 1.00002 8.58119 2.19377Z" fill="#FEC24B" stroke="#FEC24B" stroke-width="1.5" stroke-linecap="round" stroke-linejoin="round"/>
</svg>
