<svg width="24" height="24" viewBox="0 0 24 24" fill="none" xmlns="http://www.w3.org/2000/svg">
<path d="M2 10V14C2 16 3 17 5 17H6.43C6.8 17 7.17 17.11 7.49 17.3L10.41 19.13C12.93 20.71 15 19.56 15 16.59V7.41C15 4.43 12.93 3.29 10.41 4.87L7.49 6.7C7.17 6.89 6.8 7 6.43 7H5C3 7 2 8 2 10Z" fill="#5A5A5A"/>
<path d="M18 8C18.8665 9.15354 19.335 10.5573 19.335 12C19.335 13.4427 18.8665 14.8465 18 16M19.83 5.5C21.2369 7.37499 21.9975 9.65586 21.9975 12C21.9975 14.3441 21.2369 16.625 19.83 18.5" stroke="white" stroke-width="1.5" stroke-linecap="round" stroke-linejoin="round"/>
</svg>
